/* XPM */
static char *db96b83ae996408b9d21ab0b7a12530e7itONWXxQVKL5PoZ[] = {
/* columns rows colors chars-per-pixel */
"111 62 158 2 ",
"   c #221212",
".  c #281413",
"X  c #331D1F",
"o  c #381E1F",
"O  c #3D1F21",
"+  c #3D2225",
"@  c #3F242A",
"#  c #412426",
"$  c #4C2E26",
"%  c #42252A",
"&  c #45292C",
"*  c #482C2B",
"=  c #502F26",
"-  c #462830",
";  c #4D3531",
":  c #583634",
">  c #5D3B32",
",  c #543D3A",
"<  c #5E4B47",
"1  c #654D4A",
"2  c #6C534E",
"3  c #715C57",
"4  c #725E58",
"5  c #76635D",
"6  c #7E6964",
"7  c #82614E",
"8  c #876451",
"9  c #8D6A54",
"0  c #847153",
"q  c #9D7B5F",
"w  c #8E6C60",
"e  c #836E69",
"r  c #88756E",
"t  c #9A7660",
"y  c #877470",
"u  c #927D78",
"i  c #A17E60",
"p  c #A58054",
"a  c #A9855F",
"s  c #AB885E",
"d  c #B29455",
"f  c #B4955A",
"g  c #B8935E",
"h  c #B69A5B",
"j  c #BB9E5C",
"k  c #A98561",
"l  c #A78A62",
"z  c #A58468",
"x  c #A8866A",
"c  c #A78A6C",
"v  c #A48364",
"b  c #B79D62",
"n  c #BB9F61",
"m  c #A38E73",
"M  c #A89074",
"N  c #BDA161",
"B  c #C0A365",
"V  c #C3A865",
"C  c #C7A96A",
"Z  c #CAAB6B",
"A  c #CDB06C",
"S  c #CAAD75",
"D  c #868686",
"F  c #888685",
"G  c #878984",
"H  c #888986",
"J  c #878789",
"K  c #898788",
"L  c #878988",
"P  c #898989",
"I  c #918C86",
"U  c #96938B",
"Y  c #98968A",
"T  c gray59",
"R  c #9C9C9B",
"E  c #A9968F",
"W  c #B09D96",
"Q  c #AEA48E",
"!  c #B3A48F",
"~  c #A7A495",
"^  c #AEA594",
"/  c #AFA896",
"(  c #A4A19C",
")  c #AEA599",
"_  c #AEA89A",
"`  c #B0A495",
"'  c #B4A893",
"]  c #BBAC95",
"[  c #B1A599",
"{  c #B3AA9D",
"}  c #BFB196",
"|  c #A6A7A3",
" . c #AFA9A1",
".. c #ADADAB",
"X. c #B5AEA6",
"o. c #B4B0A4",
"O. c #BAB0A4",
"+. c #B7B3A9",
"@. c #ADAEB2",
"#. c #B6B6B5",
"$. c #BBBBB5",
"%. c #BBBAB9",
"&. c #C0AF95",
"*. c #C3B594",
"=. c #C4B69B",
"-. c #CABD9D",
";. c #CDBEA2",
":. c #C1BBAF",
">. c #C0BCB5",
",. c #D9C497",
"<. c #D5C49B",
"1. c #D9C69D",
"2. c #DAC99E",
"3. c #CDC4A5",
"4. c #D5C5A3",
"5. c #DAC6A1",
"6. c #D7C6AA",
"7. c #C1C3BD",
"8. c #B7D8E7",
"9. c #C4C4C4",
"0. c #C5C4C9",
"q. c #C8C6C9",
"w. c #CACACA",
"e. c #CCCCCB",
"r. c #CBD2CA",
"t. c #D4D1CC",
"y. c #D7D7D7",
"u. c #D6DBD5",
"i. c #D6DAD6",
"p. c #D8DAD7",
"a. c #D8DAD6",
"s. c #D8D6D9",
"d. c #D7DBDA",
"f. c gray85",
"g. c #D8D8D8",
"h. c #D9DBD8",
"j. c #DADADA",
"k. c gray86",
"l. c #DADCD9",
"z. c #DDDDDD",
"x. c #DADADA",
"c. c #E3E3E5",
"v. c #E5E6E1",
"b. c #ECEDEB",
"n. c gray93",
"m. c #EEEEEC",
"M. c #EFEEEC",
"N. c #EFEDEE",
"B. c #EEEEEE",
"V. c #EFEFEF",
"C. c #EDEEEF",
"Z. c #F0EEEF",
"A. c #EEF0EE",
"S. c #F2F1EF",
"D. c #EFEDF0",
"F. c #EFEFF1",
"G. c #EEEEF0",
"H. c #F0F0F0",
/* pixels */
"^ ^ ^ ^ ^ ^ ^ ^ ^ ^ ^ ^ ^ ^ ` ^ ^ ^ ^ ^ ^ ^ ^ ^ ^ ^ ^ ^ ^ ^ ^ ^ ^ ^ ^ ^ ^ ^ ^ ^ ^ ^ ^ ^ ^ ^ ^ ^ ^ ^ ^ ^ ^ ^ ^ ^ ^ ^ ^ ` ^ ^ ^ ^ ^ ^ ^ ^ ^ ^ ^ ` ^ ^ ^ ) ^ ) ^ ^ ^ ) ^ ^ ^ ^ ^ ^ ^ ^ ` ^ ^ ^ ^ ^ ^ ^ ^ ^ ^ Q ^ ^ ^ ^ ^ ^ ^ Q ^ ",
"_ { _ ) ^ ~ ^ ^ ^ ^ ^ ^ ^ ^ ` ^ ^ ^ ^ ^ ^ ^ ^ ^ ^ ^ ^ ^ ^ ^ ^ ^ ^ ^ ^ ^ ^ ^ ^ ^ ^ ^ ^ ^ ^ ^ ^ ^ ^ ^ ^ ^ ^ ^ ^ Q ^ ^ ^ ` ^ ^ ^ ^ ^ ^ ^ ^ ^ ^ ^ ` ^ ^ ^ ^ ^ ^ ^ ^ ^ ^ ) ^ ^ ^ ^ ^ ^ ^ ) ^ ^ ^ ^ ^ ^ ^ ^ ^ ^ ^ ^ ^ ^ ^ ^ ^ ^ ^ ^ ",
"9.0.9.9.9.9.+.) ^ ^ ^ ` ^ ^ ^ ^ ^ ^ ^ ^ ^ ` ^ ^ ^ ^ ^ ^ ^ ^ ^ ^ ^ ^ ^ ^ ^ Q ^ ^ ^ ^ ^ ^ ^ ^ ^ ^ ^ ^ ^ ^ ^ ^ ^ ` ^ ^ ^ ` ^ ^ ^ ^ ^ ^ ^ ^ Q ^ ^ ` ^ ^ ^ ^ ^ ^ ^ ^ ^ ) ^ ^ ^ ^ ^ ^ ^ ^ ^ ) ^ ^ ^ ^ ^ ^ ^ ^ ^ ^ ^ ^ ^ ^ ^ ^ ^ ^ ^ ",
"9.9.9.9.9.9.9.9.+.^ ` ^ ^ ^ ^ ^ ^ ^ ^ ^ ^ ^ ^ ^ ^ ^ ^ ^ ^ ^ ^ ^ Q ^ ^ ^ ^ ^ ^ ^ ^ ^ ^ ^ ^ ) ^ ^ ^ ^ ^ ^ ^ ^ ^ ^ ^ ^ ^ ` ^ ^ ^ ^ ^ ^ ^ ^ ^ ^ ^ ` ^ ^ ^ ) ^ ) ^ ^ ^ ^ ^ ^ ^ ^ ^ ^ ^ ^ ^ ^ ^ ^ ^ ^ ^ ^ ^ ^ ^ ^ ^ ^ ^ ^ ^ ^ ^ ^ ^ ",
"H.v.7.9.H.H.A.H.9.q.^ ^ ^ ^ ^ ^ ^ ^ ^ ^ ^ ^ ^ ^ ^ ^ ^ ^ ^ ^ ^ ^ ^ ^ ^ ^ ^ ^ ^ ^ ^ ^ ^ ^ ^ ) ^ ^ ) ^ ^ ^ ^ ^ ^ ^ ^ ^ ^ ^ ^ ^ ^ ^ ^ ^ ^ ^ ^ ^ ^ ` ) ^ ^ ^ ^ ^ ) ^ ^ ^ ^ ^ ^ ^ ^ ^ ^ ^ ^ ) ^ ^ ^ ^ ^ ^ ^ ^ ^ ^ ^ ^ ^ ^ ^ ^ ^ ^ ^ ",
"F.Z.N.C.H.N.N.C.M.9.9.^ ^ ^ ) ^ ^ ^ ^ ^ ^ ^ ^ ^ ^ ^ ^ ^ ^ ^ Q ^ ^ ^ ^ ^ ^ ^ ^ ^ ^ ^ ^ ^ ^ ^ ^ ^ ^ ^ ^ ^ ^ ^ ^ ^ ^ ^ ^ [ ) ^ ^ ^ ^ ^ ^ ^ ^ ^ ^ ` ^ ^ ^ ) ^ ) ^ ^ ^ ^ ^ ^ ^ ^ ^ ^ ^ ^ ^ ^ ^ ^ ^ Q ^ ^ ^ ^ ^ Q ^ ^ ^ ^ ^ ^ ^ ^ ` ",
"M.M.N.A.C.C.N.N.N.N.9.w.^ ^ / ^ ^ ^ ^ ^ ^ ^ ^ ^ ^ ^ ^ ^ ^ ^ ^ ^ ^ ^ ^ Q ^ ^ ^ ^ ^ ^ ^ ^ ) ` ^ ^ ) ^ ^ ^ ^ ^ ^ ^ ^ ^ ^ ` ^ ^ ^ ^ ^ ^ ^ ^ ^ ^ ^ ` ^ ^ ^ ^ ^ ^ ) ^ ^ ^ ^ ^ ^ ^ ^ ^ ^ ^ ^ ^ ^ ^ ^ ^ ^ ^ ^ ^ ^ ^ ^ ^ ^ ^ ^ ^ ^ ^ ^ ",
"N.N.N.N.H.C.C.N.Z.N.9.9.>.^ ^ ^ ^ ^ ^ ^ ^ ^ ^ ^ Q ^ ^ ^ ^ ^ ^ ^ ^ ^ ` ^ ^ ^ ^ ^ ^ ^ ^ ^ ) ^ ^ ^ ^ ^ ^ ^ ^ ^ ^ ^ ^ ^ ^ ` ^ ^ ^ ^ ^ ^ ^ ^ ^ ^ ^ ^ ) ^ ^ ^ ^ ^ ^ ^ ^ ) ^ ` ^ ^ ^ ^ ^ ^ ^ ^ ^ ^ ^ ^ ^ ^ ^ ^ ^ ^ ^ ^ ^ ^ Q ^ ^ ^ ^ ",
"N.C.A.C.b.N.N.C.Z.N.w.9.9.` ` ^ ^ ^ ^ ^ ^ ^ ^ ^ ^ ^ ^ ^ ^ ^ ^ ^ ^ ^ ^ ^ ^ ^ Q ^ ^ ^ ^ ^ ^ ^ ^ ^ ^ ^ ^ ^ ^ ^ ^ ^ ^ ^ ^ ` ^ ^ ^ ^ ^ ^ Q ^ ^ ^ ^ ` ^ ^ ^ ) ^ ^ ^ ^ ^ ^ ) ^ ^ ^ ^ ^ ^ ^ ^ ^ ^ ^ ^ ^ ^ ^ ^ ^ ^ Q ^ ^ ^ ^ ^ ^ ^ ^ ^ ",
"C.N.N.A.N.A.C.N.N.N.9.9.9.7.^ ^ ^ ^ ^ ^ ^ ^ ^ ^ Q ^ ^ ^ ^ ^ ^ ^ ^ ^ ^ ^ ^ ^ ^ ^ ^ ^ ^ ^ ) ^ ^ ^ ^ ^ ^ ^ ^ Q ^ ^ ^ ^ ^ ` ) ^ ^ ^ ^ ^ ^ ^ ^ ^ ^ ` ^ ^ ^ ^ ^ ) ^ ^ ^ ^ ^ ^ ^ ^ ^ ^ ^ ^ ^ ^ ^ ^ ^ ^ ^ ^ ^ ^ ^ ^ ^ ^ ^ ^ ^ ^ ^ ^ ^ ",
"C.N.b.N.A.N.N.A.A.N.9.9.9.9.) ^ ^ ^ ^ ^ ^ ^ ^ ^ ^ ^ ^ ^ ^ ^ ^ Q ^ ^ ^ ^ ^ ^ ^ ^ ^ ^ ^ ^ ^ ) ^ ^ ^ ^ ^ ^ ^ ^ ^ ^ ^ ^ ^ ` ^ ^ ^ ^ ^ ^ ^ ^ ^ ^ ^ ` ) ^ ^ ^ ^ ^ ) ^ ^ ) ^ ^ ^ ^ ^ ^ ^ ^ ^ ^ ^ ^ ^ ^ ^ ' ^ ^ ^ ^ ^ ^ ^ ^ ^ ^ ^ ^ ^ ",
"C.A.C.N.C.C.C.M.N.9.9.7.9.9.^ ^ ^ ^ ^ ^ ^ ^ ^ ^ ^ ^ ^ ^ ^ ^ ^ ^ ^ ^ Q ^ ^ ^ ^ ^ ^ ^ ^ ^ ^ ^ ^ ^ ^ ^ ^ ^ ^ ^ ^ ^ ^ ^ ^ ` ^ ^ ^ ^ ^ ^ ^ ^ ^ ^ ^ ` ^ ^ ^ ^ ` ) ^ ^ ^ ^ ) ^ ^ ^ ^ ^ ^ ^ ` ) ^ ^ ^ ^ ^ ^ ^ ^ ^ ^ ^ ^ ^ ^ Q ^ ^ ^ ^ ",
"N.A.A.b.C.N.C.A.9.9.9.9.9.9.X.^ ^ ^ ^ ^ ^ ^ ^ ^ ^ ^ ^ ^ ^ ^ ^ ^ ^ ^ ^ ^ ^ ^ ^ ^ ^ ^ ^ ^ ^ / ^ ^ ^ ^ ^ ^ ^ ^ ^ ^ ^ ^ ^ [ ^ ^ ^ ^ ^ ^ ^ ^ ^ ^ ^ ` ^ ^ ^ ^ ^ ^ ^ ^ ^ ^ ^ ^ ^ ^ ^ ^ ^ ^ ^ ) ^ ^ ^ ^ ^ ^ ^ Q ^ ^ ^ ^ ^ ^ ^ ^ ^ ^ ^ ",
"C.N.N.C.A.N.N.A.9.9.9.9.9.9.%.^ ^ ^ ^ ^ ^ ^ ^ ^ ^ ^ ^ ^ ^ ^ ^ ^ ^ ^ ^ ^ ^ ^ ^ ^ ^ ^ ^ ^ ^ ^ ^ ^ ^ ^ ^ ^ ^ ^ ^ ^ ^ ^ ^ ` ^ ^ ^ ^ ^ ^ ^ ^ ^ ^ ^ [ ) ^ ^ ^ ^ ) ) ^ ^ ^ ^ ^ ^ ^ ^ ^ ^ ^ ) ^ ^ ^ ^ ^ ^ ^ ^ ^ ^ ^ ^ ^ ^ ^ ^ ^ ^ ^ Q ",
"N.b.C.M.M.C.A.c.9.9.9.9.9.9.7.^ ^ ^ ^ ^ ^ ^ ^ Q ^ ^ ^ ^ ^ ^ ^ ^ ^ ^ ^ ^ Q ^ ^ ^ Q ^ ^ ^ ^ ^ ^ ^ ^ ^ ^ ^ ^ ^ ^ ^ ^ ^ ^ ` ^ ^ ^ ^ ^ ^ ^ ^ ^ ^ ^ ` ^ ^ ^ ) ^ ^ ^ ^ ^ ) ^ ^ ^ ^ ^ ^ ^ ^ ^ ^ ^ ^ ^ ^ ^ ^ ^ ^ ^ ^ ^ Q ^ ^ ^ ^ ^ ^ ^ ",
"N.C.N.C.C.N.C.9.9.9.9.9.9.9.>.^ ^ ^ ^ ^ ^ ^ ^ ^ ^ ^ ^ ^ ^ ^ ^ ^ ^ ^ ^ ^ ^ ^ ^ ^ ^ ^ ^ ^ ^ ) ^ ^ ^ ^ ^ ^ ^ ^ ^ ^ ^ ^ ^ ` ) ^ ^ ^ ^ ^ ^ ^ ^ ^ ^ ` ) ^ ^ ^ ^ ^ ) ^ ^ ^ ) ^ ^ ^ ^ ^ ^ ^ ^ ) ^ ^ ^ ^ ^ ^ ^ ^ ^ ^ ^ ^ ^ ^ ^ ^ ^ ^ ^ ",
"C.N.N.A.b.N.C.9.9.9.9.9.9.9.( ^ ^ ^ ^ ^ ^ ^ ^ ^ ^ ^ ^ ^ ^ ^ ^ ^ ^ ^ ^ ^ ^ ^ ^ ^ ^ ^ ^ ^ ^ ^ ^ ^ ) ^ ^ ^ ^ ^ ^ ^ ^ ^ ^ ` ^ ^ ^ ^ ^ ^ ^ Q ^ ^ ^ ` ^ ^ ^ ^ ^ ^ ) ^ ^ ^ ^ ^ ^ ^ ^ ^ ^ ^ / ) ^ ^ ^ ^ ^ ^ ^ ^ ^ ^ ^ ^ ^ ^ Q ^ ^ ^ ^ ",
"A.A.C.N.N.C.9.9.9.9.9.9.9.9.D ~ ^ ^ ^ ^ Q / ^ ^ ^ ^ ^ ^ ^ ^ ^ ^ Q ^ ^ ^ ^ ^ ^ ^ ^ ^ ^ ^ ) ^ ^ ^ ^ ^ ^ ^ Q ^ ^ ^ ^ ^ ^ ` ^ ^ ^ ^ ^ ^ ^ ^ ^ ^ ^ ` ^ ^ ^ ) ^ ^ ^ ^ ^ ) ^ ^ ^ ^ ^ ^ ^ ^ ^ ^ ^ ^ Q ^ ^ ^ Q ^ ^ ^ ^ ^ ^ ^ / ^ ^ ^ ^ ",
"N.C.C.N.H.9.9.9.9.9.9.9.9.9.R T ^ ^ ^ / ^ ^ ^ ^ ^ ^ ^ ^ ^ ^ ^ Q ^ ^ ^ ^ ^ ^ Q ^ ^ ^ ^ ^ ^ ) ^ ^ ^ ^ ^ ^ ^ ^ ^ ^ ^ ^ ^ ` ^ ^ ^ ^ ^ ^ ^ ^ ^ ^ ^ ` ) ^ ^ ^ ^ ) ) ^ ^ ^ ^ ^ ^ ^ ^ ^ ^ ^ ^ ^ ^ ^ ^ ^ ^ ^ ^ ^ ^ ^ ^ ^ ^ ^ ^ ^ ^ ^ ^ ",
"C.N.A.h.9.9.9.9.9.9.9.0.0.%.........E / ^ ` ^ ^ ^ ^ Q ^ ^ ^ ^ ^ ^ ^ ^ ^ ^ ^ ^ ^ ^ ^ ^ ^ ^ ^ ^ ^ ^ ^ ^ ^ ^ ^ ^ ^ ^ ^ ^ ` ^ ^ ^ ^ ^ ^ ^ ^ ^ ^ ^ ` ^ ^ ^ ^ ^ ^ ^ ^ ^ ) ^ Q ^ ^ ^ ^ ^ ^ ^ ^ ^ ^ ^ ^ ^ ^ ^ ^ ^ ^ ^ ^ ^ ^ ^ ^ ^ ^ ^ ",
"z.x.k.h.q.9.9.9.9.9.9.9.9.9.#........./ ' ) ^ ^ ^ ^ ^ ^ ^ ^ ^ ^ ^ ^ ^ ^ ^ ^ ^ ^ ^ ^ ^ ^ ) ^ ^ ^ ^ ^ ^ ^ ^ ^ ^ ^ ^ ^ ^ [ ^ ^ ^ ^ ^ ^ ^ ^ ^ ^ ^ ` ^ ^ ^ ) ^ ^ ^ ^ ^ ^ ) ^ ^ ^ ^ ^ ^ ^ ^ ^ ^ ^ ^ ^ ^ ^ ^ ^ ^ ^ ^ Q ^ ^ ^ ^ ^ ^ ^ ",
"x.x.u.x.r.9.9.q.9.9.9.9.9.9.9.........@..._ ` ^ ^ ^ ^ ^ ^ ^ ^ ^ ^ ^ ^ ^ ^ ^ ^ ^ ^ ^ ^ ^ ^ ) ^ ^ ) ^ ^ ^ ^ ^ ^ ^ ^ ^ ^ ` ) ^ ^ ^ ^ ^ ^ ^ ^ ^ ^ ` ) ^ ^ ^ ^ ^ ^ ^ ^ ^ ^ ^ ^ ^ ^ ^ ^ ^ ^ ) ^ ^ ^ ^ ^ ^ ^ ^ ^ ^ ^ ^ ^ ^ ^ ^ ^ ^ ^ ",
"x.x.h.z.h.9.9.9.7.9.9.9.9.9.9.9.............^ ^ ^ ^ ^ ^ ^ ^ ^ ^ ^ ^ ^ ^ ^ ^ ^ ^ ^ ^ ^ ^ ^ ^ ^ ^ ^ ^ ^ ^ ^ ^ ^ ^ ^ ^ ^ ` ^ ^ ^ ^ ^ ^ ^ ^ ^ ^ ^ ` ^ ^ ^ ^ ^ ^ ^ ^ ^ ^ ^ ^ ^ ^ ^ ^ ^ ^ ^ ) ^ ^ ^ ^ ^ Q ^ ^ ^ ^ ^ ^ ^ ^ ^ ^ ^ ^ ^ ",
"x.x.u.z.u.9.9.9.9.9.9.9.9.9.9.9.9...........~ ^ ^ ^ ^ ^ ^ ^ ^ ^ ^ ^ ^ ^ ^ ^ ^ ^ ^ ^ ^ ^ ^ ^ ^ ^ ) ^ ^ ^ ^ ^ ^ ^ ^ ^ ^ ` ^ ^ ^ ^ ^ ^ ^ ^ ^ ^ ^ ^ ^ ^ ^ ) ^ ) ) ^ ^ ^ [ ^ ^ ^ ^ ^ ^ ^ ) ^ ^ ^ ^ ^ ^ ^ ^ ^ ^ ^ ^ ^ ^ ^ Q ^ ^ ^ ^ ",
"s.k.x.z.h.9.9.9.9.9.9.9.9.9.9.9.9..........._ ~ / ^ ^ ^ ^ ^ ^ ^ ^ ^ ^ ^ ^ ^ ^ ^ ^ ^ ^ ^ ^ ^ ^ ^ / / ^ ^ ^ ^ Q ^ ^ ^ ^ ` ^ ^ ) ^ ^ ^ ` ^ ^ ` ^ ^ ^ ^ ^ ^ ^ ) ^ ^ ^ ^ ^ ^ ^ ^ ^ ^ ^ ^ ) ^ ^ ^ ^ ^ ^ ^ ^ ^ ^ ^ ^ ^ ^ ^ ^ ^ ^ ^ ^ ",
"x.x.u.x.d.9.9.9.9.....9.9.>.+.#...............+.Q ' ^ ^ ^ ^ ^ ^ ! ^ ^ ^ ^ ^ ^ ^ ^ ^ ^ ^ ^ ) ^ ^ ^ ^ Q ^ ^ ^ ^ ^ ^ ^ ^ [ ^ ^ ^ ^ ^ ^ ^ ^ ^ ^ { ` ^ ^ ^ ^ ^ ^ ) ^ ^ ^ ^ ^ ^ ^ ^ ^ ^ ^ ) ^ ^ ^ ^ ^ ^ ^ ^ ^ ^ ^ ^ ^ ^ ^ / Q ^ ^ ^ ",
"x.x.g.k.h.9.9.9.9.................................^ ^ ^ ^ ^ ) ^ ^ ^ ^ ^ ^ ^ ^ ^ ^ ^ ^ ^ ^ ^ ^ ` / ~ ^ ^ ^ ^ ^ ^ ^ ^ ^ ` ) ^ ^ ^ ^ ^ ^ ^ ^ ^ ^ ^ ~ ^ ^ ) ^ ) ^ ^ ^ ) ^ ^ ^ ^ ^ ^ ^ ^ ^ ^ ^ ^ ~ ^ ^ ^ ^ ^ ^ ^ ^ ^ ^ ^ ^ ^ ^ ^ ^ ",
"x.x.x.x.e.9.9.9.9.#.................................^ ~ Q ^ [ ^ ^ ^ ^ ` ^ ^ ^ ^ ^ ^ ^ ` ~ ^ ^ ^ ` ^ ^ / ^ ^ ^ ` ` ^ Q ^ ^ ^ ^ ^ ^ ^ ^ ^ ^ ^ ^ ^ ) ^ ^ ^ [ ` ^ ` / ^ ) ^ ^ ` ^ ` ^ ^ ^ ^ ^ ^ ` ^ ^ ^ ^ ^ ^ ^ ^ ^ ^ ^ ^ ^ Q ^ ^ ",
"x.s.u.x.9.9.9.9.9.9.............@...........................3.*.' ! ` ` ^ ^ ` ^ ^ ^ ^ ^ ^ ) ` ^ ^ ^ ^ ^ ` ` ^ ` ^ ^ ) ` / ^ ^ ^ ^ ^ ` ^ ^ ^ 6 ) ` ^ ^ ^ ' ` ` ` ` ` ^ ^ ^ ^ ^ ^ ^ ` ^ ) / ^ ^ ^ ^ ^ ^ ^ ^ ^ Q ^ ^ ^ ^ ^ ^ ^ ^ ",
"x.z.y.9.9.9.9.9.9.7...........................3...+.2.O.,.2.5.5.5.1.1.1.<.1.2.,.1.1.1.4.6.<.;.=.*.] ' ' ! W ! ` ^ 1 W ^ ` ^ ^ ^ ` ` ^ ` ^ ^ < % % % u & # ` ` ^ ^ ^ ) ^ ` ` ^ / ^ ^ ` [ ^ ^ ^ ^ ^ ^ ^ ^ ^ ^ ^ ^ ^ ^ ^ ^ ^ ^ ^ ",
"w.9.9.9.7.9.9.9.9.9.........................@.A S Z C C C V B N B B B N B j b n N j j b h h h h h h g f b d f d - % % 5 { r 4 ; ^ ^ ^ ^ ^ ^ ^ e o % % % # O % % % % # { r % + x ^ ^ ^ ^ ^ ^ ^ ^ ^ ^ ^ ^ ^ ^ ^ ^ ^ Q ^ ^ ^ ^ ^ ",
"9.9.9.9.9.9.9.9.9.#.........G | ............3.5.<.,.1.4.5.4.<.-.*.*.] ' ! ` ' ` ^ ` ` ` ` ` ` ` ^ ^ ' ` ^ ^ ^ % O % X @ % # % @ # ^ ^ ` ` ^ ^ , ^ ) 5 * i O o $ > @ # # @ + @ s ^ ^ ^ / ^ ^ ^ ^ Q ^ ^ ^ ^ ^ ^ ^ ^ ^ ^ ^ ^ ^ ^ ",
"9.9.9.9.9.9.9.9.9...+.K R H K H P H | .... .` ^ ^ ^ ^ Q ! ^ ! ^ ^ ^ ^ ^ ^ ^ ^ ^ ` ` ` ` ` ` ` ^ ^ ^ ` ` ^ ^ 1 # % + % % % % # + + % X.` ` ` ` ` ^ ^ ` ^ ^ ~ z a a : % %   % + m ^ ^ ` [ ^ ^ ^ ^ ^ ^ ^ ^ ^ ^ ^ Q ^ ^ ^ Q ^ ^ ^ ",
"9.9.0.9.9.9.9.9.9.P J P J P K P P P H P ' ^ ` ^ ^ ^ ^ ^ ^ ^ ` ^ ^ ^ ^ ^ ^ ^ ^ ^ ^ ^ ^ ^ ^ ^ ^ ^ ` ` Q ^ ^ ^ + # % + 2 + * @ % % t % # k = # 9 x 7 @ + E 4 - % % # % # % . + w M ^ ^ ^ ) ` ^ ^ ^ Q ^ ^ ` ^ ^ ^ ^ ^ ^ ^ ^ ^ ^ ^ ",
"w.9.9.9.9.9.9.0.J H H K J H Y I H J P ~ ^ ` ^ ^ ^ ^ ^ ^ ^ ^ ^ ^ ^ ^ ^ ^ ^ ^ ^ ^ ^ ^ ^ ^ ^ ^ ^ ^ ^ ^ ^ ^ ^ ^ ^ ^ , ^ ^ ^ ^ ^ ^ { - O k i % % a a @ % O % % @ # % % % # % + [ 5 ^ ^ ^ ) ^ ` ^ ^ ^ ^ ^ ^ ^ ^ ^ ^ ^ ^ ^ ^ ^ ^ ^ ^ ",
"h.d.9.9.9.9.q.P J P H G J U ^ ^ ^ ^ ^ ` ^ _ ' ^ ^ ^ ^ ^ ^ ^ ^ ^ ^ ^ ^ ^ ^ ^ ^ ^ ^ ^ ^ ^ ^ ^ ^ ^ ^ ^ ^ ^ ^ ^ ^ ^ ' ^ ^ / ` ^ ` ^ ^ , 8 k O % # s * @ % % % % % # % @ % , ` ^ ^ ^ / ^ ^ ` ^ ^ ^ ^ ^ ^ ^ ^ ^ ^ ^ ^ ^ ^ ^ ^ ^ ^ ^ ",
"x.g.w.9.9.9.( L P P G D ^ ^ ^ ^ ^ ^ ^ ^ ` ^ ^ ^ ^ ^ ^ ^ ^ ^ ^ ^ ^ ^ ^ ^ ^ ^ ^ ^ ^ ^ ^ ^ ^ ^ ^ ^ ` ` ^ ! ^ ^ ^ ^ ^ ^ ^ ^ ^ ` ' ~ ` ^ ` 0 k a t % % % # % # % # % # % & ^ Q ^ ^ ^ ^ ^ ^ ` ^ ^ ^ ^ ^ ^ ^ ^ ^ ^ ^ ^ ^ ^ ^ ^ ^ ^ ^ ",
"g.z.h.9.9.9.#.L P J F [ / ` ^ ) ^ ^ ^ ^ / ) ^ ^ ^ ^ ^ ^ ^ ^ ^ ^ ^ ^ ^ ^ ^ ^ ^ ^ ^ ^ ^ ^ ^ ^ ^ ^ ` ^ ^ ` ^ ^ ^ ^ ^ ^ ^ ^ / ^ ^ ` ` / ^ ^ ` ' c v % % % % % % % % @ 8.` ^ ^ ^ ` ^ ^ ` ^ ^ ^ ^ ^ ^ ^ ^ ^ ^ ^ ^ ^ ^ ^ ^ ^ ^ ^ ^ ^ ",
"h.h.u.q.9.9.P P P / ` ^ ` ^ ^ ^ ^ ^ ^ ^ ` ^ ^ Q ^ ^ ^ ^ ' ^ ^ ^ ^ ^ ^ ^ ^ ^ ^ ^ ^ ^ ^ ^ ^ ^ ^ ^ Q ^ ^ ^ ^ ^ ` ^ ^ ^ ` ^ ` ^ ^ ^ ^ ` ` ^ ^ ` ^ ` ^ ^ ) ^ [ ^ [ { ` ` ^ Q ^ ^ ^ ^ ^ ^ ^ ^ Q ^ ` ^ ^ ^ ^ ^ ^ ^ ^ ^ ^ Q ^ ^ ^ Q ^ ",
"x.h.u.9.0.9.9.D U ^ ^ ^ ^ ` ^ ^ ` ` ^ ` ^ ^ ^ ^ ^ ^ ^ ^ ^ ^ ^ ^ ^ ^ ^ ^ ^ Q ^ ^ ^ ^ ^ ` ^ ^ ^ ^ / ^ ^ ^ Q ` ^ ^ ^ ^ / _ ) ^ ` ^ ` ^ ^ ^ ^ ^ ^ ` ^ ^ ^ ^ ^ ` ` ` ` ^ / / ^ ^ ^ ^ ^ / ) ~ ^ ^ Q ` ^ ^ ^ ^ ^ ^ ^ ^ ^ ^ ^ ^ ^ ^ ^ ",
"x.x.u.9.9.9.9.9.K ^ ^ ^ ^ ^ ` ^ ^ ^ ^ ^ ^ ^ ^ ^ ^ ^ ^ ^ ^ ^ ^ ^ ^ ^ Q ^ ^ ^ ^ ^ ^ ^ ^ ^ ^ ^ ^ ^ ^ ^ ^ ^ ^ ^ ^ ^ ^ ^ ^ ^ ^ ^ ^ ^ ^ ^ Q ^ ^ ^ ^ ^ ^ ^ ^ ` ^ ) ) ^ ^ ^ ) ^ ^ ^ ^ ^ ^ ^ ^ ^ ^ ^ ^ ^ ^ ^ ^ ^ ^ ^ ^ ^ ^ ^ ^ ^ ^ ^ ^ ",
"x.x.e.9.9.9.9.9.D ~ ^ ^ ^ ^ ^ ^ ^ ^ ^ ^ ^ ^ ^ ^ ^ ^ ^ ^ ^ ^ ^ ^ ^ ^ ^ ^ ^ ^ ^ ^ ^ ^ ^ ^ ^ ^ ^ ^ ^ ^ ^ Q ^ ^ ^ ^ ^ ^ ^ ) ) ^ ^ ^ ^ ^ ^ ^ ^ ^ ^ ` ^ ^ ^ ) ^ ^ ^ ^ ^ ^ ^ ^ ^ ^ ^ ^ ^ ^ ^ ^ ^ ^ ^ ^ ^ ^ ^ ^ ^ ^ ^ ^ Q ^ ^ ^ ^ ^ ^ ",
"x.x.9.9.9.9.7.9.I ` ^ [ ^ ^ [ ^ ^ ^ ^ ^ ^ ^ ^ ^ ^ ^ Q ^ ^ ^ ^ ^ ^ ^ ^ ^ ^ ^ Q ^ ^ ^ ^ ^ ^ ^ ^ ^ ^ ^ ^ ^ ^ ^ ^ ^ ^ ^ ^ ^ ^ ^ ^ ^ ^ ^ ^ ^ ^ ^ ^ ` ) ^ ^ ^ ^ ^ ^ ^ ^ ^ ^ ^ ^ ^ ^ ^ ^ ^ ^ ^ ^ ^ ^ ^ Q ^ ^ ^ ^ ^ ^ ^ ^ ^ ^ ^ ^ ^ ^ ",
"x.x.x.9.7.9.9.9.^ ^ ` ` ^ ^ ) ^ ^ ^ ^ ^ ^ ^ ^ ^ ^ ^ ^ ^ ^ ^ ^ Q ^ ^ ^ ^ ^ ^ ^ ^ ^ ^ Q ^ ^ ^ ^ ^ ^ ^ ^ ^ ^ ^ ^ ^ ^ ^ ^ ^ ^ ^ ^ ^ ^ ^ ^ ^ ^ ^ ^ ` ^ ^ ^ ) ^ ^ ^ ^ ^ ^ ) ^ ^ ^ ^ ^ ^ ^ ^ ) ^ ^ ^ ^ ^ ^ ^ ^ ^ Q ^ ^ ^ ^ ^ ^ ^ ^ ^ ",
"g.z.g.h.0.9.9.9.9.9.9.^ ^ ^ ^ ^ ^ ^ ^ ^ ^ ^ ^ ^ ^ ^ ^ ^ Q ^ ^ ^ ^ ^ ^ ^ ^ ^ ^ ^ ^ ^ ^ ^ ^ ^ ^ ^ ^ ^ ^ ^ ^ ^ ^ ^ ^ ^ ^ ^ ^ ^ ^ ^ ^ ^ ^ ^ ^ ^ ^ ` ^ ^ ^ ^ ^ ^ ^ ^ ^ ) ^ ^ ^ ^ ^ ^ ^ ^ ^ ) ^ ^ ^ ^ ^ ^ ^ ^ ^ ^ ^ ^ ^ ^ ^ ^ ^ ^ ^ ",
"g.g.u.x.l.9.9.9.9.9.9.9.) ^ ^ ^ ^ ^ ^ ^ ^ ^ ^ ^ ^ ^ ^ ^ ^ ^ ^ ^ ^ ^ ^ ^ ^ ^ ^ ^ ^ ^ ^ ^ ^ ^ ^ ^ ^ ^ ^ ^ ^ ^ ^ ^ ^ ^ ^ ) ) ^ ^ ^ ^ ^ ^ ^ ^ ^ ^ [ ) ^ ^ ^ ^ ) ) ^ ^ ^ ) ^ ^ ^ ^ ^ ^ ^ ) ^ ^ ^ ^ ^ ^ ^ ^ Q ^ ^ ^ ^ ^ ^ ^ ^ ^ ^ ^ ",
"g.k.g.z.x.x.9.9.9.9.9.9.9./ ^ ^ ^ ^ ^ ^ ^ ^ ^ ^ ^ ^ ^ ^ ^ ^ ^ ^ ^ ^ ^ ^ ^ ^ ^ ^ ^ ^ ^ ^ ^ ^ ^ ^ ^ ^ ^ ^ ^ ^ ^ ^ ^ ^ ^ ^ ^ ^ ^ ^ ^ ^ ^ ^ ^ ^ ^ ` ^ ^ ^ ) ^ ^ ^ ^ ^ ) ^ ^ ^ ^ ^ ^ ^ ^ ^ ^ ^ ^ ^ ` ^ ^ ^ ^ ^ ^ ^ ^ ^ ^ ^ ^ ^ ^ ^ ",
"g.g.x.x.g.h.e.0.9.9.9.0.9.` ^ ^ ^ ^ ^ ^ ^ ^ ^ ^ ^ ^ ^ ^ ^ ^ ^ ^ ^ ` ^ Q ^ ^ ^ ^ ^ ^ ^ ^ ^ ^ ^ ^ ^ Q ^ ^ ^ ^ ^ ^ ^ ^ ^ ^ ^ ^ ^ ^ ^ ^ ^ ^ ^ ^ ^ ` ) ^ ^ ^ ^ ^ ) ^ ^ ^ ^ ^ ^ ^ ^ ^ ^ ^ ^ ) ^ ^ ^ ^ ^ ^ ^ ^ ^ ^ ^ ^ ^ ^ ^ ^ ^ ^ ^ ",
"g.x.d.z.p.p.x.9.9.9.9.9.9.[ ) ^ ^ ^ ^ ^ ^ ^ ^ ^ ^ ^ ^ ^ ^ ^ ^ ^ ^ ^ Q ^ ^ ^ ^ ^ ^ ^ ^ ^ ^ ^ ^ ^ ^ ^ ^ ^ ^ ^ ^ ^ ^ ^ ^ ^ ^ ^ ^ ^ ^ ^ ^ ^ ^ ^ ^ ` ^ ^ ^ ^ ^ ^ ) ^ ^ ^ ^ ^ ^ ^ ^ ^ ^ ^ ^ / ^ ^ ^ ^ ^ ^ ^ ^ ^ ^ ^ ^ Q ^ ^ ^ ^ ^ ^ ",
"z.g.u.x.p.x.u.9.9.9.9.9.9.^ ^ ^ ^ ^ ^ ^ ^ ^ ^ ^ ^ ^ ^ ^ ^ ^ ^ ^ ^ ^ ^ ^ ^ ^ ^ ^ ^ ^ ^ ^ ^ ^ ^ ^ ^ ^ ^ ^ ^ ^ ^ ^ ^ Q ^ ^ ) ^ ^ ^ ^ ^ ^ Q ^ ^ ^ ` ^ ^ ^ ) ^ ^ ^ ^ ^ ^ ^ ^ ^ ^ ^ ^ ^ ^ ) ) ^ ^ ^ ^ ^ ^ ^ ^ ^ ^ ^ ^ ^ ^ ^ ^ ^ ^ ^ ",
"x.x.u.x.p.x.p.9.9.9.9.9.9.^ ^ ^ ^ ^ ^ ^ ^ ^ ^ ^ ^ ^ ^ ^ ^ ^ Q ^ ^ ^ ^ ^ ^ ^ ^ ^ ^ ^ ^ ^ ^ ^ ^ ^ ^ ^ ^ ^ ^ ^ ^ ^ ^ ^ ^ ^ ^ ^ ^ ^ ^ ^ ^ ^ ^ ^ ^ ` ^ ^ ^ ^ ^ ) ) ^ ^ ^ ^ ^ ^ ^ ^ ^ ^ ^ ^ ^ ^ ^ ^ ^ ^ ^ ^ ^ ^ ^ ^ ^ ^ ^ ^ ^ ^ ^ ^ ",
"x.x.x.x.x.p.p.9.9.9.9.0. .^ ) ^ ^ ^ ^ ^ ^ ^ ^ ^ ^ ^ ` ^ ^ ^ ^ ^ ^ ^ ^ ^ ^ ^ ^ ^ ^ ^ ^ ^ ^ ^ ^ ^ ^ ^ ^ ^ ^ ` ^ ^ ^ ^ ^ ^ ^ ^ ^ ^ ^ ^ ^ ^ ^ ^ ^ ` ) ^ ^ ^ ^ ^ ^ ^ ^ ) ^ ^ ^ ^ ^ ^ ^ ^ ^ ^ ^ Q ^ ^ ^ Q ^ ^ ^ ^ ^ ^ ^ ^ ^ ^ ^ Q ^ ",
"x.x.p.x.a.x.p.9.9.9.9.) ^ ^ ^ ^ ^ ^ ^ ^ ^ ^ ^ ^ ^ ^ ^ ^ ^ ^ ^ ^ ^ ^ ^ ^ ^ ^ ^ ^ ^ ^ ^ ^ ^ ^ ^ ^ ^ ^ ^ ^ ^ ^ ^ ^ ^ ^ ^ ^ ^ ^ ^ ^ ^ ^ ^ ^ ^ ^ ^ ` ^ ^ ^ ) ^ ^ ^ ^ ^ ^ ) ^ ^ ^ ^ ^ ^ ^ ^ ^ ^ ^ ^ ^ ^ ^ ^ ^ ' ^ ^ ^ ^ ^ ^ ^ ^ ^ ^ ",
"y.x.x.x.p.x.p.^ ^ ` ^ ^ ) W ^ ^ ^ ^ ^ ^ ^ ^ ^ ^ ^ ^ ^ ^ ^ ^ ^ ^ ^ ^ ` ^ ^ ^ ^ Q ^ ^ ^ ^ ^ ^ ^ ^ ^ ^ ^ ^ ^ ^ ^ Q ^ ^ ^ ) ) ^ ^ ^ ^ ^ ^ ^ ^ ^ ^ ` ) ^ ^ ^ ^ ^ ^ ^ ^ ^ ^ ^ ^ ^ ^ ^ ^ ^ ^ ^ ^ ^ ^ ^ ^ ^ ^ ^ ^ ^ ^ ^ ^ Q ^ ^ ^ ^ ^ ",
"x.x.p.x.p.x.x.^ ` ^ ^ ) ^ ^ ^ ^ ^ ^ ^ ^ ^ ^ ^ ^ ^ ^ ^ ^ ^ ^ ^ ^ ^ ^ ^ ^ ^ ^ ^ ^ ^ ^ ^ ^ ^ ^ ^ ^ Q ^ ^ ^ ^ ^ ^ ^ ^ ^ ^ ^ ^ ^ ^ ^ ^ ^ ^ ^ ^ ^ ^ ` ^ ^ ^ ^ ^ ^ ^ ^ ^ ^ ^ ^ ^ ^ ^ ^ ^ ^ ) ^ ^ ^ ^ ^ ^ ^ ^ ^ ^ Q ^ ^ ^ ^ ^ ^ ^ ^ ^ ",
"x.p.a.x.p.x.>.` ^ ^ ^ ^ ^ ^ ^ ^ ^ ^ ^ ^ ^ ^ ^ ^ ^ ^ ^ Q ^ ^ ^ ^ ^ Q ^ ^ ^ ^ ^ ^ ^ ^ ^ ^ ^ ^ ^ ^ ^ ^ ^ ^ ^ ^ ^ ^ ^ ^ ^ ^ ^ ^ ^ ^ ^ ^ ^ ^ ^ ^ ^ ^ ^ ^ ^ ) ^ ) ) ^ ^ ^ ) ^ ^ ^ ^ ^ ^ ^ ^ ) ^ ^ ^ ^ ^ ^ ^ ^ ^ ^ ^ ^ ^ ^ ^ ^ ^ ^ ^ ",
"x.x.u.p.u.z.^ ^ ^ ^ ^ ^ ^ ^ ^ ^ ^ ^ ^ ^ ^ ^ ^ ^ ^ ^ ^ ^ ^ ^ ^ ^ ^ ^ ^ ^ ^ ^ ^ Q ^ ^ ^ ^ ^ ^ ^ ` ^ ^ ^ ^ ^ ^ ^ ^ ^ ^ ^ ^ ) ^ ^ ^ ^ ^ ^ ^ ^ ^ ^ ` ) ^ ^ ^ ^ ^ ^ ^ ^ ) ^ ^ ^ ^ ^ ^ ^ ^ ^ ^ ^ ^ ^ ^ ^ ^ ^ ^ ^ ^ ^ ^ ^ ^ ^ ^ Q ^ ^ ",
"x.x.x.h.g.) ^ ^ ^ ^ ^ ^ ^ ^ ^ ^ ^ ^ ^ ^ ^ ^ ^ ^ ^ ^ ^ ^ ^ ^ ^ ^ ^ ^ ^ ^ ^ ^ ^ ^ ^ ^ ^ ^ ^ ^ ^ ^ ^ ^ ^ ^ ^ ^ ^ ^ ^ ^ ^ ^ ^ ^ ^ ^ ^ ^ ^ ^ ^ ^ ^ ` ` ^ ^ ^ ^ ^ ) ^ ^ ^ ) ^ ^ ^ ^ ^ ^ ^ ^ ) ^ ^ ^ ^ ^ ^ ^ ^ ^ ^ ^ ^ ^ ^ ^ ^ ^ ^ ^ ",
"x.x.h.z.$.^ ^ ^ ^ ^ ^ ^ ^ ^ ^ ^ ^ Q ^ ^ ^ ^ ^ ^ ^ ^ ^ ^ ^ Q ^ ^ ^ ^ ^ ^ ^ ^ ^ ^ ^ ^ ^ ^ ^ ^ ^ ^ ^ ^ ^ ^ ^ ^ ^ ^ ^ ^ ^ ^ ^ ^ ^ ^ ^ ^ ^ ^ ^ ^ ^ ` ^ ^ ^ ) ^ ) ^ ^ ^ ) ^ ^ ^ ^ ^ ^ ^ ^ ^ ^ ^ ^ ^ ^ ^ ^ ^ ^ ^ ^ ^ ^ ^ ^ ^ ^ ^ ^ ^ ",
"x.x.h.{ ` ` Q ^ ^ ^ ^ ^ ^ ^ ) ^ ^ ^ ^ ^ ^ ^ ^ ^ ^ ^ ^ ^ ^ ^ ^ ^ ^ ^ ^ ^ ^ ^ ^ ^ ^ ^ ^ ^ ^ ^ ^ ^ ^ ^ ^ ^ ^ ^ ^ ^ ^ ^ ^ ^ ^ ^ ` ^ ^ ^ ^ ^ ^ ^ ^ ` ) ^ ^ ^ ^ ^ ) ^ ^ ^ ^ ^ ^ ^ ^ ^ ^ ^ ^ ^ ^ ^ ^ ^ ^ ^ ^ ^ / Q ^ ^ ^ ^ ^ ^ ^ ^ ^ ",
"z.t.` ^ ^ ^ ^ ^ ^ ^ ^ ) ^ ^ ^ ^ ^ ^ ^ ^ ^ / ^ ^ ^ ^ ^ Q ^ ^ ^ ^ ^ Q ^ ^ ^ ^ ^ ^ ^ ^ ^ ^ ^ ^ ^ ^ ^ ^ Q ^ ^ ^ ^ ^ ^ ^ ^ ^ ) ^ ^ ^ ^ ^ ^ ^ ^ ^ ^ ` ^ ^ ^ ) ^ ) ^ ^ ^ ^ ^ ^ ^ ^ ^ ^ ^ ^ ^ / ^ ^ ^ ^ Q ^ ^ ^ ^ ^ ^ ^ Q ^ ^ ^ ^ ^ ^ ",
"` ` ` ^ ^ ` ^ ^ ^ ^ ^ ^ ^ ^ ^ ^ ^ ^ ^ ^ ^ / ^ ^ ^ ^ ^ ^ ^ ^ ^ ^ ^ ^ ^ ^ ^ ^ ^ ^ ^ ^ ^ ^ ^ ^ ^ ^ ^ ^ ^ ^ ^ ^ ^ ^ ^ ^ ^ ^ ^ ^ ^ ^ ^ ^ ^ ^ ^ ^ ^ ` ^ ^ ^ / ^ ^ ^ ^ ^ ^ ^ ^ ^ ^ ^ ^ ^ ^ ^ / ^ ^ ^ ^ ^ ^ ^ ^ ^ ^ ^ ^ ^ ^ ^ ^ ^ ^ ^ "
};
