/* XPM */
static char *_787_937353c8b2dfc52196bf2386fee4895ef0b1d7418f44fd77205abb999f5db2c5[] = {
/* columns rows colors chars-per-pixel */
"17 19 2 1 ",
"  c black",
". c None",
/* pixels */
".................",
".......   .......",
".......   .......",
"......     ......",
"......  .  ......",
"......  .  ......",
".....  ...  .....",
".....  ...  .....",
".....  ...   ....",
"....  .....  ....",
"....  .....  ....",
"...   .....   ...",
"...           ...",
"...           ...",
"..   .......   ..",
"..  .........  ..",
"..  .........  ..",
".   .........   .",
".  ...........  ."
};
