/* XPM */
static char *_6547_d3945512cbfae4b973d967d293a2f5dcc521dbd255ca332f2ce2f0cce4d897ae[] = {
/* columns rows colors chars-per-pixel */
"14 19 2 1 ",
"  c black",
". c None",
/* pixels */
"..............",
".         ....",
".          ...",
".  ......   ..",
".  .......  ..",
".  .......   .",
".  .......  ..",
".  .......  ..",
".  ......  ...",
".         ....",
".           ..",
".  .......  ..",
".  ........  .",
".  ........  .",
".  ........  .",
".  ........  .",
".  .......   .",
".           ..",
".         ...."
};
