/* XPM */
static char *_7475_28ed7081672035926fe602c480c253ee8c7b5a4edbaf8d482b80c8e2e7130d2a[] = {
/* columns rows colors chars-per-pixel */
"17 20 2 1 ",
"  c black",
". c None",
/* pixels */
".................",
".....        ....",
"....          ...",
"...   ......   ..",
"..   ........   .",
"..  ..........  .",
".   ..........  .",
".  ..............",
".  ..............",
".  ..............",
".  ..............",
".  ..............",
".  ..............",
".   ..........  .",
"..  ..........  .",
"..   ........   .",
"...   ......   ..",
"....          ...",
".....        ....",
"................."
};
