/* XPM */
static char *_8021_d9c8e619b3c84e06bf836333f837e8c775fc0609142348ed404402f73ef9e8ac[] = {
/* columns rows colors chars-per-pixel */
"15 19 2 1 ",
"  c black",
". c None",
/* pixels */
"...............",
"          .....",
"           ....",
"  .......   ...",
"  ........   ..",
"  .........   .",
"  ..........  .",
"  ..........  .",
"  ..........  .",
"  ..........   ",
"  ..........   ",
"  ..........  .",
"  ..........  .",
"  ..........  .",
"  .........   .",
"  ........   ..",
"  .......   ...",
"           ....",
"         ......"
};
