/* XPM */
static char *_4820_3aef9e40f7bfe832df04155a4625a7c259d73f0ddd706353e5f3da5a988dcde8[] = {
/* columns rows colors chars-per-pixel */
"12 19 2 1 ",
"  c black",
". c None",
/* pixels */
"............",
"           .",
"           .",
"  ..........",
"  ..........",
"  ..........",
"  ..........",
"  ..........",
"  ..........",
"           .",
"           .",
"  ..........",
"  ..........",
"  ..........",
"  ..........",
"  ..........",
"  ..........",
"           .",
"           ."
};
