/* XPM */
static char *_793_bc4dae7ac5c4eca2472066bd359ea6efb501af69513623a9841a704f8a9ea47b[] = {
/* columns rows colors chars-per-pixel */
"12 19 2 1 ",
"  c black",
". c None",
/* pixels */
"............",
"           .",
"           .",
"   .........",
"   .........",
"   .........",
"   .........",
"   .........",
"   .........",
"           .",
"          ..",
"   .........",
"   .........",
"   .........",
"   .........",
"   .........",
"   .........",
"   .........",
"   ........."
};
