/* XPM */
static char *_5189_90022fc33036a4a3a96a310c3069a82db124cc93ce92113d1a4849e5808387fb[] = {
/* columns rows colors chars-per-pixel */
"17 20 2 1 ",
"  c black",
". c None",
/* pixels */
".................",
".....       .....",
"....          ...",
"...   ......   ..",
"..   ........   .",
".   .........   .",
".  ...........  .",
".  ..............",
".  ..............",
".  ..............",
".  ......       .",
".  ......       .",
".  ...........  .",
".   ..........  .",
".   .........   .",
"..   ........  ..",
"...   ......   ..",
"....          ...",
".....       .....",
"................."
};
