/* XPM */
static char *_0553_7a958bd71cd792c79d28d9ccd9030b88d60250d4a9c296f2ef94f5e61e158f1c[] = {
/* columns rows colors chars-per-pixel */
"15 19 2 1 ",
"  c black",
". c None",
/* pixels */
"...............",
"   .........   ",
"   .........   ",
"   .........   ",
"   .........   ",
"   .........   ",
"   .........   ",
"   .........   ",
"   .........   ",
"               ",
"               ",
"   .........   ",
"   .........   ",
"   .........   ",
"   .........   ",
"   .........   ",
"   .........   ",
"   .........   ",
"   .........   "
};
