/* XPM */
static char *_2670_0975a5f582c243e9186c9cd403c6ba58eff39d062c8852902e96303ecd3a8f14[] = {
/* columns rows colors chars-per-pixel */
"3 19 2 1 ",
"  c black",
". c None",
/* pixels */
"...",
"   ",
"   ",
"   ",
"   ",
"   ",
"   ",
"   ",
"   ",
"   ",
"   ",
"   ",
"   ",
"   ",
"   ",
"   ",
"   ",
"   ",
"   "
};
