/* XPM */
static char *_1475_118b1741be40e41fae01a88b5dba21ec857d2def398d7d353ded1e309b88fb20[] = {
/* columns rows colors chars-per-pixel */
"11 20 2 1 ",
"  c black",
". c None",
/* pixels */
"...........",
"........   ",
"........   ",
"........   ",
"........   ",
"........   ",
"........   ",
"........   ",
"........   ",
"........   ",
"........   ",
"........   ",
"........   ",
"........   ",
"........   ",
"   .....  .",
".  .....  .",
".         .",
"..      ...",
"..........."
};
