/* XPM */
static char *_5670_53d7ddae55854038f650da7f223f0de1c94ca7e197eaa7a345e913724c63640a[] = {
/* columns rows colors chars-per-pixel */
"15 19 2 1 ",
"  c black",
". c None",
/* pixels */
"...............",
"   .......   ..",
"   ......    ..",
"   ......   ...",
"   .....   ....",
"   ....   .....",
"   ...   ......",
"   ..   .......",
"   .   ........",
"       ........",
"       ........",
"    ..  .......",
"   ...   ......",
"   ....   .....",
"   .....   ....",
"   ......  ....",
"   ......   ...",
"   .......   ..",
"   ........   ."
};
