/* XPM */
static char *_533_829f4f8ed9e18731bd65fdfcbb7015e9f99c02890403add76a17c15240c1a68e[] = {
/* columns rows colors chars-per-pixel */
"12 19 2 1 ",
"  c black",
". c None",
/* pixels */
"............",
".  .........",
".  .........",
".  .........",
".  .........",
".  .........",
".  .........",
".  .........",
".  .........",
".  .........",
".  .........",
".  .........",
".  .........",
".  .........",
".  .........",
".  .........",
".  .........",
".          .",
".          ."
};
