/* XPM */
static char *_0503_d6292484b1936ab3c6755d63c5de70995991c32851c617ebd5d1098f6e034371[] = {
/* columns rows colors chars-per-pixel */
"19 19 2 1 ",
"  c black",
". c None",
/* pixels */
"...................",
".   ...........   .",
".   ...........   .",
".   ...........   .",
".    .........    .",
".    .........    .",
".     .......     .",
".  .  .......  .  .",
".  .  .......  .  .",
".  ..  .....  ..  .",
".  ..  .....  ..  .",
".  ..   ...   ..  .",
".  ...  ...  ...  .",
".  ...  ...  ...  .",
".  ....  .  ....  .",
".  ....  .  ....  .",
".  ....     ....  .",
".  .....   .....  .",
".  .....   .....  ."
};
