/* XPM */
static char *_8147_dfc7feb54cbdf758a52ec2a8de966772b7bc780030384db9fbfad15a81b32a8e[] = {
/* columns rows colors chars-per-pixel */
"15 19 2 1 ",
"  c black",
". c None",
/* pixels */
"...............",
"   .........   ",
"    ........   ",
"    ........   ",
"     .......   ",
"      ......   ",
"   .  ......   ",
"   ..  .....   ",
"   ..   ....   ",
"   ...  ....   ",
"   ....  ...   ",
"   ....   ..   ",
"   .....   .   ",
"   ......  .   ",
"   ......      ",
"   .......     ",
"   ........    ",
"   .........   ",
"   .........   "
};
