/* XPM */
static char *_3427_f55ae0153f6d3a775e6189fe53e1448d4ddf520775ad994287fb182a92b9f041[] = {
/* columns rows colors chars-per-pixel */
"18 20 2 1 ",
"  c black",
". c None",
/* pixels */
"..................",
".....        .....",
"....          ....",
"...   ......   ...",
"..   ........   ..",
"..  ..........  ..",
".   ..........   .",
".  ............  .",
".  ............  .",
".  ............  .",
".  ............  .",
".  ............  .",
".  ............  .",
".   ..........   .",
"..  ..........  ..",
"..   ........   ..",
"...   ......   ...",
"....          ....",
"......       .....",
".................."
};
