/* XPM */
static char *_9704_255f8f09fd1b8f23f31819c0b467fdb159b81175c5c1c0c58dd1f2e20653d75a[] = {
/* columns rows colors chars-per-pixel */
"13 19 2 1 ",
"  c black",
". c None",
/* pixels */
".............",
"          ...",
"           ..",
"   ......   .",
"   .......  .",
"   .......   ",
"   .......   ",
"   .......   ",
"   .......  .",
"   ......   .",
"           ..",
"          ...",
"   ..........",
"   ..........",
"   ..........",
"   ..........",
"   ..........",
"   ..........",
"   .........."
};
