/* XPM */
static char *_0943_c2a1f7b0d9683ac270136b77e8ba4547d9fda1750118618e86ce5acbf4814277[] = {
/* columns rows colors chars-per-pixel */
"18 21 2 1 ",
"  c black",
". c None",
/* pixels */
"..................",
".....        .....",
"....          ....",
"...   ......   ...",
"..   ........   ..",
"..  ..........  ..",
".   ..........   .",
".  ............  .",
".  ............  .",
".  ............  .",
".  ............  .",
".  ............  .",
".  ............  .",
".   .....  ...   .",
"..  .....   ..  ..",
"..   .....      ..",
"...   .....    ...",
"....          ....",
"......         ...",
".............  ...",
"..............  .."
};
