/* XPM */
static char *_483_5514a35a47cad6c9232d68a3e1b00b0f95b5cf6f3bff62f87d87c8c110aa494f[] = {
/* columns rows colors chars-per-pixel */
"14 19 2 1 ",
"  c black",
". c None",
/* pixels */
"..............",
"          ....",
"           ...",
"  .......   ..",
"  ........  ..",
"  ........  ..",
"  ........   .",
"  ........  ..",
"  ........  ..",
"  .......   ..",
"           ...",
"         .....",
"  .....   ....",
"  ......  ....",
"  ......   ...",
"  .......  ...",
"  .......   ..",
"  ........  ..",
"  ........   ."
};
