/* XPM */
static char *_1981_cfef82d208995f4e0337082e535f39c565906a50a3bef4ab9db610606781f2dc[] = {
/* columns rows colors chars-per-pixel */
"14 20 2 1 ",
"  c black",
". c None",
/* pixels */
"..............",
"....       ...",
"..          ..",
".   ......   .",
".  ........  .",
".  ...........",
".  ...........",
".   ..........",
"..    ........",
"...       ....",
"......      ..",
".........    .",
"...........  .",
"...........   ",
".  ........  .",
".  ........  .",
".   ......   .",
"..          ..",
"...        ...",
".............."
};
