/* XPM */
static char *_1128_a70b877f9c953a3c8a6b6dfe0adfae8a5a08af27f5614fac7bf35ad3ab3dd3f2[] = {
/* columns rows colors chars-per-pixel */
"15 19 2 1 ",
"  c black",
". c None",
/* pixels */
"...............",
".             .",
".             .",
"......   ......",
"......   ......",
"......   ......",
"......   ......",
"......   ......",
"......   ......",
"......   ......",
"......   ......",
"......   ......",
"......   ......",
"......   ......",
"......   ......",
"......   ......",
"......   ......",
"......   ......",
"......   ......"
};
