/* XPM */
static char *_315_720edd84eb0374f16837d0a15a11bacbc3dc505f18a56f6a32052b5c78a89015[] = {
/* columns rows colors chars-per-pixel */
"15 20 2 1 ",
"  c black",
". c None",
/* pixels */
"...............",
"   .........   ",
"   .........   ",
"   .........   ",
"   .........   ",
"   .........   ",
"   .........   ",
"   .........   ",
"   .........   ",
"   .........   ",
"   .........   ",
"   .........   ",
"   .........   ",
"   .........   ",
".  .........  .",
".   .......   .",
"..   .....    .",
"..           ..",
"....       ....",
"..............."
};
