/* XPM */
static char *_8230_0a4a85e89b682f60e1260c868046bede65f433d5345c9599d396f84fdc6683ce[] = {
/* columns rows colors chars-per-pixel */
"17 19 2 1 ",
"  c black",
". c None",
/* pixels */
".................",
".  ...........  .",
".   .........   .",
"..  .........  ..",
"..  .........  ..",
"..   .......   ..",
"...  .......  ...",
"...  .......  ...",
"...   .....   ...",
"....  .....  ....",
"....  .....  ....",
".....  ...  .....",
".....  ...  .....",
".....   ..  .....",
"......  .  ......",
"......  .  ......",
"......     ......",
".......   .......",
".......   ......."
};
