/* XPM */
static char *_7308_e881a666e662041dd10e1647bd10da1ac249abaff6c24a205f6dd7e0b94fc916[] = {
/* columns rows colors chars-per-pixel */
"24 19 2 1 ",
"  c black",
". c None",
/* pixels */
"........................",
".  ........  ........  .",
".  .......    .......  .",
".   ......    ......   .",
"..  ......    ......  ..",
"..  ......    ......  ..",
"..  .....  ..  .....  ..",
"..   ....  ..  ....   ..",
"...  ....  ..  ....  ...",
"...  ...   ..   ...  ...",
"...  ...  ....  ...  ...",
"....  ..  ....  ..  ....",
"....  ..  ....  ..  ....",
"....  .  ......  .  ....",
"....  .  ......  .  ....",
".....    ......    .....",
".....    ......    .....",
".....   ........   .....",
".....   ........  ......"
};
