/* XPM */
static char *_0972_f3ab1dba0f2d8c99362a3f0d8656dbfe4469312450bdad2016fd9b37c6a8c4a2[] = {
/* columns rows colors chars-per-pixel */
"15 19 2 1 ",
"  c black",
". c None",
/* pixels */
"...............",
".  .........  .",
".   .......   .",
"..  .......  ..",
"..   .....   ..",
"...   ...   ...",
"....  ...  ....",
"....   .   ....",
".....     .....",
"......   ......",
"......    .....",
".....     .....",
"....   .   ....",
"....  ...  ....",
"...   ...   ...",
"..   .....   ..",
"..  .......  ..",
".   .......   .",
".  .........   "
};
