/* XPM */
static char *_18_994a98291461800f931c16a64d81ff931940a8604d76b6464a3ff2b6b31e7d5b[] = {
/* columns rows colors chars-per-pixel */
"17 19 2 1 ",
"  c black",
". c None",
/* pixels */
".................",
".   .........   .",
"..  .........  ..",
"..   .......   ..",
"...   ......  ...",
"....  .....  ....",
"....   ...   ....",
".....  ...  .....",
"......  .  ......",
"......     ......",
".......   .......",
".......   .......",
".......   .......",
".......   .......",
".......   .......",
".......   .......",
".......   .......",
".......   .......",
".......   ......."
};
