/* XPM */
static char *_1123_22c8ebf6fb47a4aa461000e5902d377024dd38f8a3e750e76ec3176863522c46[] = {
/* columns rows colors chars-per-pixel */
"14 19 2 1 ",
"  c black",
". c None",
/* pixels */
"..............",
".            .",
".            .",
"..........   .",
".........   ..",
".........  ...",
"........   ...",
".......   ....",
".......  .....",
"......   .....",
".....   ......",
".....  .......",
"....   .......",
"...   ........",
"...  .........",
"..   .........",
".   ..........",
".            .",
".            ."
};
